<?xml version="1.0" standalone="no"?>
<!DOCTYPE svg PUBLIC "-//W3C//DTD SVG 20010904//EN"
 "http://www.w3.org/TR/2001/REC-SVG-20010904/DTD/svg10.dtd">
<svg version="1.0" xmlns="http://www.w3.org/2000/svg"
 width="400.000000pt" height="400.000000pt" viewBox="0 0 400.000000 400.000000"
 preserveAspectRatio="xMidYMid meet">
<metadata>
Created by potrace 1.11, written by Peter Selinger 2001-2013
</metadata>
<g transform="translate(0.000000,400.000000) scale(0.100000,-0.100000)"
fill="#000000" stroke="none">
<path d="M0 2000 l0 -2000 2000 0 2000 0 0 2000 0 2000 -2000 0 -2000 0 0
-2000z m1878 1708 c19 -19 15 -41 -8 -35 -10 3 -24 -1 -31 -9 -15 -19 -35 -18
-43 2 -8 20 0 33 28 44 30 12 40 12 54 -2z m128 -28 c0 -8 4 -25 8 -38 5 -15
2 -31 -9 -48 -16 -25 -17 -25 -36 -8 -14 12 -18 26 -14 41 4 19 1 23 -20 23
-20 0 -25 5 -25 26 0 24 2 25 48 22 33 -2 47 -7 48 -18z m-246 -10 c0 -12 -37
-50 -47 -50 -57 1 -74 46 -20 53 60 7 67 7 67 -3z m-137 -44 c15 -40 -28 -81
-58 -56 -12 10 -11 16 7 41 24 31 43 37 51 15z m775 -59 c2 -11 -2 -17 -10
-16 -7 2 -23 -1 -36 -5 -19 -6 -20 -9 -8 -22 13 -12 13 -18 -2 -44 -19 -34
-42 -46 -53 -29 -8 14 -2 37 17 60 11 13 11 19 -1 36 -14 20 -14 23 2 32 29
17 87 9 91 -12z m-286 -5 c22 -15 24 -20 14 -34 -12 -16 -15 -16 -49 0 -42 19
-51 52 -14 52 12 0 34 -8 49 -18z m143 -18 c0 -16 -7 -19 -38 -18 -21 1 -43 6
-49 12 -19 19 3 33 45 29 33 -3 42 -8 42 -23z m-693 -44 c-5 -32 -30 -60 -54
-60 -22 0 -22 4 0 52 12 28 22 37 37 36 15 -2 19 -9 17 -28z m824 -78 c13 -8
34 -46 34 -61 0 -20 -29 -12 -55 15 -35 35 -18 73 21 46z m-860 -48 c-3 -9 -6
-31 -6 -49 0 -28 -3 -32 -20 -28 -28 7 -33 19 -26 59 6 28 11 34 33 34 19 0
24 -4 19 -16z m957 -88 c9 -3 17 -12 17 -21 0 -20 -59 -20 -86 0 -18 15 -18
15 0 29 12 10 24 12 35 6 9 -5 24 -11 34 -14z m130 -28 c29 -11 31 -15 18 -37
-7 -11 -15 -11 -47 0 -22 7 -41 14 -42 15 -2 2 -1 12 3 24 5 15 12 19 23 15
10 -4 29 -12 45 -17z m-1136 -5 c4 -11 -3 -24 -23 -40 -35 -27 -43 -28 -51 -6
-4 11 3 24 23 40 35 27 43 28 51 6z m1225 -70 c3 -16 8 -35 12 -44 11 -24 -25
-35 -38 -12 -18 30 -23 57 -13 71 16 20 34 13 39 -15z m-1339 -41 c-7 -47 -18
-59 -38 -42 -19 16 -19 49 1 78 23 33 44 13 37 -36z m1397 -80 c-1 -23 -47
-75 -60 -67 -18 11 -11 38 17 67 27 29 43 29 43 0z m-1455 -40 c8 -27 17 -38
33 -40 21 -3 21 -5 7 -32 -19 -37 -54 -49 -72 -24 -12 17 -11 20 12 27 27 9
34 27 10 27 -8 0 -22 11 -31 25 -14 21 -15 30 -5 52 15 32 31 20 46 -35z
m1451 -85 c-23 -23 -76 -45 -76 -31 0 4 12 23 26 42 17 22 29 30 34 23 5 -9
11 -7 21 5 12 15 14 15 17 2 2 -9 -8 -27 -22 -41z m-1482 -78 c32 -38 33 -49
2 -49 -36 0 -70 32 -62 58 10 30 30 27 60 -9z m1520 0 c30 -35 33 -49 10 -49
-22 0 -73 50 -67 67 8 21 30 15 57 -18z m117 -29 c34 -18 38 -23 29 -40 -11
-21 -28 -18 -68 11 -14 10 -20 22 -16 33 8 20 7 20 55 -4z m-1580 -97 c20 -32
20 -32 0 -42 -17 -9 -23 -6 -41 24 -22 36 -19 58 6 53 8 -2 24 -17 35 -35z
m1655 10 c20 -26 17 -50 -6 -56 -19 -5 -50 15 -50 33 0 39 33 53 56 23z m144
-30 c0 -38 -67 -72 -85 -43 -11 18 5 51 23 46 9 -3 24 -1 32 4 22 14 30 12 30
-7z m95 -38 c50 -49 14 -81 -38 -32 -24 22 -27 30 -17 42 17 21 27 19 55 -10z
m-1848 -59 c35 -35 34 -46 -4 -46 -15 0 -30 11 -43 32 -34 56 -3 66 47 14z
m1944 -45 c36 -36 37 -51 4 -49 -32 3 -70 41 -62 62 9 23 25 20 58 -13z
m-1905 -88 c5 -29 3 -39 -12 -50 -16 -12 -19 -11 -26 4 -3 10 -7 33 -7 51 -1
25 3 32 19 32 14 0 21 -9 26 -37z m1946 -30 c3 -16 9 -36 13 -45 5 -14 2 -18
-14 -18 -16 0 -26 10 -37 35 -16 40 -12 55 15 55 13 0 20 -9 23 -27z m-1902
-91 c0 -21 -7 -47 -15 -58 -13 -16 -16 -17 -25 -4 -13 19 -5 81 12 92 23 14
28 9 28 -30z m1880 -22 c12 -7 11 -12 -5 -30 -31 -34 -54 -43 -72 -28 -14 11
-11 16 18 40 37 31 38 31 59 18z m-1796 -62 c21 -29 20 -54 -1 -62 -17 -7 -33
9 -33 32 0 6 -7 12 -15 12 -17 0 -18 2 -9 24 9 23 40 20 58 -6z m1693 -29 c9
-9 7 -21 -8 -50 -21 -42 -20 -42 -42 -33 -13 4 -13 11 -5 37 18 54 34 67 55
46z m-1573 -74 c15 -12 17 -18 8 -27 -9 -9 -21 -8 -52 2 -41 14 -44 17 -34 43
6 17 43 8 78 -18z m1510 -52 c4 -10 -2 -26 -16 -42 -13 -14 -24 -28 -25 -29
-1 -2 -10 -1 -21 2 -19 6 -19 9 -5 36 22 45 56 62 67 33z m-1441 -83 c-4 -13
-14 -20 -30 -20 -13 0 -21 4 -18 10 3 5 -1 20 -9 32 -20 29 -20 36 2 41 24 6
62 -37 55 -63z m1387 -76 c0 -41 -2 -45 -22 -42 -40 5 -38 88 2 88 17 0 20 -6
20 -46z m-1397 -41 c-5 -38 -9 -43 -31 -43 -26 0 -26 0 -10 71 3 16 30 30 40
20 4 -3 4 -25 1 -48z m1380 -85 c-12 -65 -29 -82 -53 -53 -10 12 -10 19 -2 27
7 7 12 22 12 35 0 18 6 23 25 23 22 0 24 -3 18 -32z m-1393 -37 c0 -42 -10
-61 -31 -61 -20 0 -24 24 -13 68 10 34 44 29 44 -7z m1329 -65 c10 -11 5 -19
-22 -40 -38 -29 -53 -32 -60 -13 -5 14 41 67 59 67 6 0 17 -6 23 -14z m-1359
-46 c5 0 4 -16 -1 -35 -6 -19 -7 -40 -4 -45 3 -6 -5 -10 -19 -10 -28 0 -31 11
-20 69 5 23 11 30 21 27 8 -4 18 -6 23 -6z m1238 -26 c3 -19 -3 -22 -38 -26
-32 -3 -44 0 -51 14 -10 19 -7 22 36 31 35 8 50 2 53 -19z m-133 -21 c8 -21
-39 -66 -64 -61 -27 5 -22 32 12 55 40 27 43 27 52 6z m-110 -130 c-8 -19 -15
-37 -15 -39 0 -2 -9 -4 -20 -4 -24 0 -25 18 -5 66 13 31 17 34 35 24 19 -10
19 -13 5 -47z m-1007 30 c-3 -5 -11 -23 -18 -40 -10 -24 -21 -33 -37 -33 -27
0 -30 25 -7 58 14 20 72 34 62 15z m2 -168 c0 -38 -5 -44 -31 -38 -15 4 -19
14 -19 48 0 47 17 63 38 37 6 -9 12 -30 12 -47z m990 33 c0 -7 -9 -28 -21 -47
-19 -32 -21 -32 -39 -16 -19 17 -19 18 2 46 22 29 58 40 58 17z m-104 -92 c3
-7 -5 -30 -17 -50 -20 -35 -22 -36 -40 -20 -20 18 -18 26 14 62 23 25 35 28
43 8z m-896 -32 c0 -11 -43 -84 -49 -84 -3 0 -13 4 -20 9 -23 15 16 81 46 81
13 0 23 -3 23 -6z m820 -91 c0 -10 -11 -31 -24 -48 -23 -28 -26 -29 -42 -13
-16 16 -15 18 7 47 27 33 59 41 59 14z m-898 -72 c-4 -36 -7 -41 -29 -41 -24
0 -25 2 -19 42 9 53 14 60 34 49 14 -7 17 -19 14 -50z m755 18 c26 -10 43 -25
43 -41 0 -12 -38 -10 -62 3 -27 14 -30 8 -17 -30 9 -27 9 -35 -2 -42 -21 -13
-24 -12 -42 29 -17 36 -17 38 3 54 11 9 20 21 20 27 0 14 21 14 57 0z m-747
-128 c0 -38 -19 -71 -41 -71 -17 0 -20 4 -15 23 3 12 6 32 6 45 0 17 6 22 25
22 18 0 25 -5 25 -19z m720 -50 c0 -11 -86 -41 -94 -33 -17 16 -4 42 27 50 32
9 67 0 67 -17z m-166 -11 c37 -14 34 -40 -4 -40 -34 0 -83 27 -74 41 7 12 46
11 78 -1z m-528 -126 c-10 -25 -32 -15 -50 23 -17 36 -17 38 0 50 16 12 20 9
37 -23 10 -20 16 -42 13 -50z m508 44 c7 -26 -24 -58 -55 -58 -18 0 -18 15 0
45 3 6 6 13 7 18 1 4 2 9 3 12 4 16 40 2 45 -17z m-111 -4 c3 -3 1 -20 -5 -37
-5 -18 -12 -38 -14 -46 -4 -11 -8 -10 -24 4 -20 18 -19 45 2 73 11 13 31 16
41 6z m-345 -106 c4 -32 -19 -51 -52 -42 -29 7 -34 22 -11 30 8 4 15 12 15 19
0 14 18 25 35 21 6 -1 11 -14 13 -28z m392 -2 c0 -24 -56 -57 -84 -50 -49 12
1 53 77 63 4 1 7 -5 7 -13z m-440 -105 c0 -9 5 -22 12 -29 8 -8 8 -15 -2 -27
-18 -21 -23 -19 -43 15 -22 37 -15 70 13 63 11 -3 20 -13 20 -22z m373 0 c17
-17 -4 -31 -42 -31 -46 0 -72 23 -44 39 19 12 71 7 86 -8z m-69 -84 c30 -28
20 -59 -16 -49 -28 6 -38 20 -38 50 0 29 22 28 54 -1z m-276 -24 c17 -24 15
-43 -5 -43 -27 0 -78 44 -69 59 10 16 57 6 74 -16z m347 -53 c8 -13 -22 -67
-44 -80 -34 -17 -37 17 -6 64 18 27 39 34 50 16z m-332 -77 c7 -43 3 -53 -24
-53 -16 0 -19 7 -19 45 0 37 3 45 19 45 13 0 20 -10 24 -37z m262 -66 c0 -27
-5 -42 -17 -48 -23 -12 -37 15 -31 59 4 27 9 32 27 30 17 -2 21 -10 21 -41z
m-198 -94 c-19 -19 -43 -7 -58 29 -19 46 6 55 43 16 25 -27 27 -33 15 -45z
m183 8 c12 -23 7 -27 -43 -36 -39 -8 -46 1 -31 39 9 23 61 21 74 -3z m-115
-41 c3 -5 15 -10 26 -10 14 0 19 -7 19 -25 0 -20 -5 -25 -24 -25 -26 0 -56 23
-56 44 0 24 23 35 35 16z"/>
</g>
</svg>
